%TF.GenerationSoftware,KiCad,Pcbnew,(5.1.10)-1*%
%TF.CreationDate,2025-09-05T10:38:05+05:30*%
%TF.ProjectId,5v DC RPS,35762044-4320-4525-9053-2e6b69636164,rev?*%
%TF.SameCoordinates,Original*%
%TF.FileFunction,Legend,Top*%
%TF.FilePolarity,Positive*%
%FSLAX46Y46*%
G04 Gerber Fmt 4.6, Leading zero omitted, Abs format (unit mm)*
G04 Created by KiCad (PCBNEW (5.1.10)-1) date 2025-09-05 10:38:05*
%MOMM*%
%LPD*%
G01*
G04 APERTURE LIST*
%ADD10C,0.150000*%
%ADD11C,0.120000*%
G04 APERTURE END LIST*
D10*
X4857904Y-25360380D02*
X4953142Y-25360380D01*
X5048380Y-25408000D01*
X5096000Y-25455619D01*
X5143619Y-25550857D01*
X5191238Y-25741333D01*
X5191238Y-25979428D01*
X5143619Y-26169904D01*
X5096000Y-26265142D01*
X5048380Y-26312761D01*
X4953142Y-26360380D01*
X4857904Y-26360380D01*
X4762666Y-26312761D01*
X4715047Y-26265142D01*
X4667428Y-26169904D01*
X4619809Y-25979428D01*
X4619809Y-25741333D01*
X4667428Y-25550857D01*
X4715047Y-25455619D01*
X4762666Y-25408000D01*
X4857904Y-25360380D01*
X5905523Y-26741333D02*
X5857904Y-26693714D01*
X5762666Y-26550857D01*
X5715047Y-26455619D01*
X5667428Y-26312761D01*
X5619809Y-26074666D01*
X5619809Y-25884190D01*
X5667428Y-25646095D01*
X5715047Y-25503238D01*
X5762666Y-25408000D01*
X5857904Y-25265142D01*
X5905523Y-25217523D01*
X6286476Y-26360380D02*
X6286476Y-25360380D01*
X6857904Y-26360380D01*
X6857904Y-25360380D01*
X7238857Y-26741333D02*
X7286476Y-26693714D01*
X7381714Y-26550857D01*
X7429333Y-26455619D01*
X7476952Y-26312761D01*
X7524571Y-26074666D01*
X7524571Y-25884190D01*
X7476952Y-25646095D01*
X7429333Y-25503238D01*
X7381714Y-25408000D01*
X7286476Y-25265142D01*
X7238857Y-25217523D01*
D11*
%TO.C,C1*%
X27001698Y-28623000D02*
X27001698Y-27823000D01*
X27401698Y-28223000D02*
X26601698Y-28223000D01*
X18911000Y-26441000D02*
X18911000Y-25375000D01*
X18951000Y-26676000D02*
X18951000Y-25140000D01*
X18991000Y-26856000D02*
X18991000Y-24960000D01*
X19031000Y-27006000D02*
X19031000Y-24810000D01*
X19071000Y-27137000D02*
X19071000Y-24679000D01*
X19111000Y-27254000D02*
X19111000Y-24562000D01*
X19151000Y-27361000D02*
X19151000Y-24455000D01*
X19191000Y-27460000D02*
X19191000Y-24356000D01*
X19231000Y-27553000D02*
X19231000Y-24263000D01*
X19271000Y-27639000D02*
X19271000Y-24177000D01*
X19311000Y-27721000D02*
X19311000Y-24095000D01*
X19351000Y-27798000D02*
X19351000Y-24018000D01*
X19391000Y-27872000D02*
X19391000Y-23944000D01*
X19431000Y-27942000D02*
X19431000Y-23874000D01*
X19471000Y-28010000D02*
X19471000Y-23806000D01*
X19511000Y-28074000D02*
X19511000Y-23742000D01*
X19551000Y-28136000D02*
X19551000Y-23680000D01*
X19591000Y-28195000D02*
X19591000Y-23621000D01*
X19631000Y-28253000D02*
X19631000Y-23563000D01*
X19671000Y-28308000D02*
X19671000Y-23508000D01*
X19711000Y-28362000D02*
X19711000Y-23454000D01*
X19751000Y-28413000D02*
X19751000Y-23403000D01*
X19791000Y-28464000D02*
X19791000Y-23352000D01*
X19831000Y-28512000D02*
X19831000Y-23304000D01*
X19871000Y-28559000D02*
X19871000Y-23257000D01*
X19911000Y-28605000D02*
X19911000Y-23211000D01*
X19951000Y-28649000D02*
X19951000Y-23167000D01*
X19991000Y-28692000D02*
X19991000Y-23124000D01*
X20031000Y-28734000D02*
X20031000Y-23082000D01*
X20071000Y-24868000D02*
X20071000Y-23041000D01*
X20071000Y-28775000D02*
X20071000Y-26948000D01*
X20111000Y-24868000D02*
X20111000Y-23001000D01*
X20111000Y-28815000D02*
X20111000Y-26948000D01*
X20151000Y-24868000D02*
X20151000Y-22963000D01*
X20151000Y-28853000D02*
X20151000Y-26948000D01*
X20191000Y-24868000D02*
X20191000Y-22925000D01*
X20191000Y-28891000D02*
X20191000Y-26948000D01*
X20231000Y-24868000D02*
X20231000Y-22889000D01*
X20231000Y-28927000D02*
X20231000Y-26948000D01*
X20271000Y-24868000D02*
X20271000Y-22853000D01*
X20271000Y-28963000D02*
X20271000Y-26948000D01*
X20311000Y-24868000D02*
X20311000Y-22818000D01*
X20311000Y-28998000D02*
X20311000Y-26948000D01*
X20351000Y-24868000D02*
X20351000Y-22784000D01*
X20351000Y-29032000D02*
X20351000Y-26948000D01*
X20391000Y-24868000D02*
X20391000Y-22752000D01*
X20391000Y-29064000D02*
X20391000Y-26948000D01*
X20431000Y-24868000D02*
X20431000Y-22719000D01*
X20431000Y-29097000D02*
X20431000Y-26948000D01*
X20471000Y-24868000D02*
X20471000Y-22688000D01*
X20471000Y-29128000D02*
X20471000Y-26948000D01*
X20511000Y-24868000D02*
X20511000Y-22658000D01*
X20511000Y-29158000D02*
X20511000Y-26948000D01*
X20551000Y-24868000D02*
X20551000Y-22628000D01*
X20551000Y-29188000D02*
X20551000Y-26948000D01*
X20591000Y-24868000D02*
X20591000Y-22599000D01*
X20591000Y-29217000D02*
X20591000Y-26948000D01*
X20631000Y-24868000D02*
X20631000Y-22570000D01*
X20631000Y-29246000D02*
X20631000Y-26948000D01*
X20671000Y-24868000D02*
X20671000Y-22543000D01*
X20671000Y-29273000D02*
X20671000Y-26948000D01*
X20711000Y-24868000D02*
X20711000Y-22516000D01*
X20711000Y-29300000D02*
X20711000Y-26948000D01*
X20751000Y-24868000D02*
X20751000Y-22490000D01*
X20751000Y-29326000D02*
X20751000Y-26948000D01*
X20791000Y-24868000D02*
X20791000Y-22464000D01*
X20791000Y-29352000D02*
X20791000Y-26948000D01*
X20831000Y-24868000D02*
X20831000Y-22439000D01*
X20831000Y-29377000D02*
X20831000Y-26948000D01*
X20871000Y-24868000D02*
X20871000Y-22415000D01*
X20871000Y-29401000D02*
X20871000Y-26948000D01*
X20911000Y-24868000D02*
X20911000Y-22391000D01*
X20911000Y-29425000D02*
X20911000Y-26948000D01*
X20951000Y-24868000D02*
X20951000Y-22368000D01*
X20951000Y-29448000D02*
X20951000Y-26948000D01*
X20991000Y-24868000D02*
X20991000Y-22346000D01*
X20991000Y-29470000D02*
X20991000Y-26948000D01*
X21031000Y-24868000D02*
X21031000Y-22324000D01*
X21031000Y-29492000D02*
X21031000Y-26948000D01*
X21071000Y-24868000D02*
X21071000Y-22302000D01*
X21071000Y-29514000D02*
X21071000Y-26948000D01*
X21111000Y-24868000D02*
X21111000Y-22281000D01*
X21111000Y-29535000D02*
X21111000Y-26948000D01*
X21151000Y-24868000D02*
X21151000Y-22261000D01*
X21151000Y-29555000D02*
X21151000Y-26948000D01*
X21191000Y-24868000D02*
X21191000Y-22242000D01*
X21191000Y-29574000D02*
X21191000Y-26948000D01*
X21231000Y-24868000D02*
X21231000Y-22222000D01*
X21231000Y-29594000D02*
X21231000Y-26948000D01*
X21271000Y-24868000D02*
X21271000Y-22204000D01*
X21271000Y-29612000D02*
X21271000Y-26948000D01*
X21311000Y-24868000D02*
X21311000Y-22186000D01*
X21311000Y-29630000D02*
X21311000Y-26948000D01*
X21351000Y-24868000D02*
X21351000Y-22168000D01*
X21351000Y-29648000D02*
X21351000Y-26948000D01*
X21391000Y-24868000D02*
X21391000Y-22151000D01*
X21391000Y-29665000D02*
X21391000Y-26948000D01*
X21431000Y-24868000D02*
X21431000Y-22134000D01*
X21431000Y-29682000D02*
X21431000Y-26948000D01*
X21471000Y-24868000D02*
X21471000Y-22118000D01*
X21471000Y-29698000D02*
X21471000Y-26948000D01*
X21511000Y-24868000D02*
X21511000Y-22103000D01*
X21511000Y-29713000D02*
X21511000Y-26948000D01*
X21551000Y-24868000D02*
X21551000Y-22087000D01*
X21551000Y-29729000D02*
X21551000Y-26948000D01*
X21591000Y-24868000D02*
X21591000Y-22073000D01*
X21591000Y-29743000D02*
X21591000Y-26948000D01*
X21631000Y-24868000D02*
X21631000Y-22058000D01*
X21631000Y-29758000D02*
X21631000Y-26948000D01*
X21671000Y-24868000D02*
X21671000Y-22045000D01*
X21671000Y-29771000D02*
X21671000Y-26948000D01*
X21711000Y-24868000D02*
X21711000Y-22031000D01*
X21711000Y-29785000D02*
X21711000Y-26948000D01*
X21751000Y-24868000D02*
X21751000Y-22019000D01*
X21751000Y-29797000D02*
X21751000Y-26948000D01*
X21791000Y-24868000D02*
X21791000Y-22006000D01*
X21791000Y-29810000D02*
X21791000Y-26948000D01*
X21831000Y-24868000D02*
X21831000Y-21994000D01*
X21831000Y-29822000D02*
X21831000Y-26948000D01*
X21871000Y-24868000D02*
X21871000Y-21983000D01*
X21871000Y-29833000D02*
X21871000Y-26948000D01*
X21911000Y-24868000D02*
X21911000Y-21972000D01*
X21911000Y-29844000D02*
X21911000Y-26948000D01*
X21951000Y-24868000D02*
X21951000Y-21961000D01*
X21951000Y-29855000D02*
X21951000Y-26948000D01*
X21991000Y-24868000D02*
X21991000Y-21951000D01*
X21991000Y-29865000D02*
X21991000Y-26948000D01*
X22031000Y-24868000D02*
X22031000Y-21941000D01*
X22031000Y-29875000D02*
X22031000Y-26948000D01*
X22071000Y-24868000D02*
X22071000Y-21932000D01*
X22071000Y-29884000D02*
X22071000Y-26948000D01*
X22111000Y-24868000D02*
X22111000Y-21923000D01*
X22111000Y-29893000D02*
X22111000Y-26948000D01*
X22151000Y-29902000D02*
X22151000Y-21914000D01*
X22191000Y-29910000D02*
X22191000Y-21906000D01*
X22231000Y-29918000D02*
X22231000Y-21898000D01*
X22271000Y-29925000D02*
X22271000Y-21891000D01*
X22312000Y-29932000D02*
X22312000Y-21884000D01*
X22352000Y-29938000D02*
X22352000Y-21878000D01*
X22392000Y-29945000D02*
X22392000Y-21871000D01*
X22432000Y-29950000D02*
X22432000Y-21866000D01*
X22472000Y-29956000D02*
X22472000Y-21860000D01*
X22512000Y-29960000D02*
X22512000Y-21856000D01*
X22552000Y-29965000D02*
X22552000Y-21851000D01*
X22592000Y-29969000D02*
X22592000Y-21847000D01*
X22632000Y-29973000D02*
X22632000Y-21843000D01*
X22672000Y-29976000D02*
X22672000Y-21840000D01*
X22712000Y-29979000D02*
X22712000Y-21837000D01*
X22752000Y-29982000D02*
X22752000Y-21834000D01*
X22792000Y-29984000D02*
X22792000Y-21832000D01*
X22832000Y-29985000D02*
X22832000Y-21831000D01*
X22872000Y-29987000D02*
X22872000Y-21829000D01*
X22912000Y-29988000D02*
X22912000Y-21828000D01*
X22952000Y-29988000D02*
X22952000Y-21828000D01*
X22992000Y-29988000D02*
X22992000Y-21828000D01*
X27112000Y-25908000D02*
G75*
G03*
X27112000Y-25908000I-4120000J0D01*
G01*
%TO.C,C2*%
X36062775Y-24331000D02*
X36062775Y-23831000D01*
X36312775Y-24081000D02*
X35812775Y-24081000D01*
X30907000Y-22890000D02*
X30907000Y-22322000D01*
X30947000Y-23124000D02*
X30947000Y-22088000D01*
X30987000Y-23283000D02*
X30987000Y-21929000D01*
X31027000Y-23411000D02*
X31027000Y-21801000D01*
X31067000Y-23521000D02*
X31067000Y-21691000D01*
X31107000Y-23617000D02*
X31107000Y-21595000D01*
X31147000Y-23704000D02*
X31147000Y-21508000D01*
X31187000Y-23784000D02*
X31187000Y-21428000D01*
X31227000Y-21566000D02*
X31227000Y-21355000D01*
X31227000Y-23857000D02*
X31227000Y-23646000D01*
X31267000Y-21566000D02*
X31267000Y-21287000D01*
X31267000Y-23925000D02*
X31267000Y-23646000D01*
X31307000Y-21566000D02*
X31307000Y-21223000D01*
X31307000Y-23989000D02*
X31307000Y-23646000D01*
X31347000Y-21566000D02*
X31347000Y-21163000D01*
X31347000Y-24049000D02*
X31347000Y-23646000D01*
X31387000Y-21566000D02*
X31387000Y-21106000D01*
X31387000Y-24106000D02*
X31387000Y-23646000D01*
X31427000Y-21566000D02*
X31427000Y-21052000D01*
X31427000Y-24160000D02*
X31427000Y-23646000D01*
X31467000Y-21566000D02*
X31467000Y-21001000D01*
X31467000Y-24211000D02*
X31467000Y-23646000D01*
X31507000Y-21566000D02*
X31507000Y-20953000D01*
X31507000Y-24259000D02*
X31507000Y-23646000D01*
X31547000Y-21566000D02*
X31547000Y-20907000D01*
X31547000Y-24305000D02*
X31547000Y-23646000D01*
X31587000Y-21566000D02*
X31587000Y-20863000D01*
X31587000Y-24349000D02*
X31587000Y-23646000D01*
X31627000Y-21566000D02*
X31627000Y-20821000D01*
X31627000Y-24391000D02*
X31627000Y-23646000D01*
X31667000Y-21566000D02*
X31667000Y-20780000D01*
X31667000Y-24432000D02*
X31667000Y-23646000D01*
X31707000Y-21566000D02*
X31707000Y-20742000D01*
X31707000Y-24470000D02*
X31707000Y-23646000D01*
X31747000Y-21566000D02*
X31747000Y-20705000D01*
X31747000Y-24507000D02*
X31747000Y-23646000D01*
X31787000Y-21566000D02*
X31787000Y-20669000D01*
X31787000Y-24543000D02*
X31787000Y-23646000D01*
X31827000Y-21566000D02*
X31827000Y-20635000D01*
X31827000Y-24577000D02*
X31827000Y-23646000D01*
X31867000Y-21566000D02*
X31867000Y-20602000D01*
X31867000Y-24610000D02*
X31867000Y-23646000D01*
X31907000Y-21566000D02*
X31907000Y-20571000D01*
X31907000Y-24641000D02*
X31907000Y-23646000D01*
X31947000Y-21566000D02*
X31947000Y-20541000D01*
X31947000Y-24671000D02*
X31947000Y-23646000D01*
X31987000Y-21566000D02*
X31987000Y-20511000D01*
X31987000Y-24701000D02*
X31987000Y-23646000D01*
X32027000Y-21566000D02*
X32027000Y-20484000D01*
X32027000Y-24728000D02*
X32027000Y-23646000D01*
X32067000Y-21566000D02*
X32067000Y-20457000D01*
X32067000Y-24755000D02*
X32067000Y-23646000D01*
X32107000Y-21566000D02*
X32107000Y-20431000D01*
X32107000Y-24781000D02*
X32107000Y-23646000D01*
X32147000Y-21566000D02*
X32147000Y-20406000D01*
X32147000Y-24806000D02*
X32147000Y-23646000D01*
X32187000Y-21566000D02*
X32187000Y-20382000D01*
X32187000Y-24830000D02*
X32187000Y-23646000D01*
X32227000Y-21566000D02*
X32227000Y-20359000D01*
X32227000Y-24853000D02*
X32227000Y-23646000D01*
X32267000Y-21566000D02*
X32267000Y-20338000D01*
X32267000Y-24874000D02*
X32267000Y-23646000D01*
X32307000Y-21566000D02*
X32307000Y-20316000D01*
X32307000Y-24896000D02*
X32307000Y-23646000D01*
X32347000Y-21566000D02*
X32347000Y-20296000D01*
X32347000Y-24916000D02*
X32347000Y-23646000D01*
X32387000Y-21566000D02*
X32387000Y-20277000D01*
X32387000Y-24935000D02*
X32387000Y-23646000D01*
X32427000Y-21566000D02*
X32427000Y-20258000D01*
X32427000Y-24954000D02*
X32427000Y-23646000D01*
X32467000Y-21566000D02*
X32467000Y-20241000D01*
X32467000Y-24971000D02*
X32467000Y-23646000D01*
X32507000Y-21566000D02*
X32507000Y-20224000D01*
X32507000Y-24988000D02*
X32507000Y-23646000D01*
X32547000Y-21566000D02*
X32547000Y-20208000D01*
X32547000Y-25004000D02*
X32547000Y-23646000D01*
X32587000Y-21566000D02*
X32587000Y-20192000D01*
X32587000Y-25020000D02*
X32587000Y-23646000D01*
X32627000Y-21566000D02*
X32627000Y-20178000D01*
X32627000Y-25034000D02*
X32627000Y-23646000D01*
X32667000Y-21566000D02*
X32667000Y-20164000D01*
X32667000Y-25048000D02*
X32667000Y-23646000D01*
X32707000Y-21566000D02*
X32707000Y-20151000D01*
X32707000Y-25061000D02*
X32707000Y-23646000D01*
X32747000Y-21566000D02*
X32747000Y-20138000D01*
X32747000Y-25074000D02*
X32747000Y-23646000D01*
X32787000Y-21566000D02*
X32787000Y-20126000D01*
X32787000Y-25086000D02*
X32787000Y-23646000D01*
X32828000Y-21566000D02*
X32828000Y-20115000D01*
X32828000Y-25097000D02*
X32828000Y-23646000D01*
X32868000Y-21566000D02*
X32868000Y-20105000D01*
X32868000Y-25107000D02*
X32868000Y-23646000D01*
X32908000Y-21566000D02*
X32908000Y-20095000D01*
X32908000Y-25117000D02*
X32908000Y-23646000D01*
X32948000Y-21566000D02*
X32948000Y-20086000D01*
X32948000Y-25126000D02*
X32948000Y-23646000D01*
X32988000Y-21566000D02*
X32988000Y-20078000D01*
X32988000Y-25134000D02*
X32988000Y-23646000D01*
X33028000Y-21566000D02*
X33028000Y-20070000D01*
X33028000Y-25142000D02*
X33028000Y-23646000D01*
X33068000Y-21566000D02*
X33068000Y-20063000D01*
X33068000Y-25149000D02*
X33068000Y-23646000D01*
X33108000Y-21566000D02*
X33108000Y-20056000D01*
X33108000Y-25156000D02*
X33108000Y-23646000D01*
X33148000Y-21566000D02*
X33148000Y-20050000D01*
X33148000Y-25162000D02*
X33148000Y-23646000D01*
X33188000Y-21566000D02*
X33188000Y-20045000D01*
X33188000Y-25167000D02*
X33188000Y-23646000D01*
X33228000Y-21566000D02*
X33228000Y-20041000D01*
X33228000Y-25171000D02*
X33228000Y-23646000D01*
X33268000Y-21566000D02*
X33268000Y-20037000D01*
X33268000Y-25175000D02*
X33268000Y-23646000D01*
X33308000Y-25179000D02*
X33308000Y-20033000D01*
X33348000Y-25182000D02*
X33348000Y-20030000D01*
X33388000Y-25184000D02*
X33388000Y-20028000D01*
X33428000Y-25185000D02*
X33428000Y-20027000D01*
X33468000Y-25186000D02*
X33468000Y-20026000D01*
X33508000Y-25186000D02*
X33508000Y-20026000D01*
X36128000Y-22606000D02*
G75*
G03*
X36128000Y-22606000I-2620000J0D01*
G01*
%TO.C,D1*%
X20724000Y-13199000D02*
X20724000Y-7629000D01*
X20484000Y-13199000D02*
X20484000Y-7629000D01*
X20604000Y-13199000D02*
X20604000Y-7629000D01*
X11092000Y-10414000D02*
X12392000Y-10414000D01*
X23452000Y-10414000D02*
X22152000Y-10414000D01*
X12392000Y-13199000D02*
X22152000Y-13199000D01*
X12392000Y-7629000D02*
X12392000Y-13199000D01*
X22152000Y-7629000D02*
X12392000Y-7629000D01*
X22152000Y-13199000D02*
X22152000Y-7629000D01*
%TO.C,D2*%
X20052000Y-41036000D02*
X20052000Y-37196000D01*
X19812000Y-41036000D02*
X19812000Y-37196000D01*
X19932000Y-41036000D02*
X19932000Y-37196000D01*
X11092000Y-39116000D02*
X13352000Y-39116000D01*
X23452000Y-39116000D02*
X21192000Y-39116000D01*
X13352000Y-41036000D02*
X21192000Y-41036000D01*
X13352000Y-37196000D02*
X13352000Y-41036000D01*
X21192000Y-37196000D02*
X13352000Y-37196000D01*
X21192000Y-41036000D02*
X21192000Y-37196000D01*
%TO.C,D3*%
X40112000Y-37063000D02*
X40112000Y-40153000D01*
X45172000Y-38608000D02*
G75*
G03*
X45172000Y-38608000I-2500000J0D01*
G01*
X45662000Y-38608462D02*
G75*
G03*
X40112000Y-37063170I-2990000J462D01*
G01*
X45662000Y-38607538D02*
G75*
G02*
X40112000Y-40152830I-2990000J-462D01*
G01*
%TO.C,J1*%
X8322000Y-22038000D02*
X9652000Y-22038000D01*
X8322000Y-23368000D02*
X8322000Y-22038000D01*
X8322000Y-24638000D02*
X10982000Y-24638000D01*
X10982000Y-24638000D02*
X10982000Y-29778000D01*
X8322000Y-24638000D02*
X8322000Y-29778000D01*
X8322000Y-29778000D02*
X10982000Y-29778000D01*
%TO.C,J2*%
X36128000Y-37278000D02*
X36128000Y-38608000D01*
X34798000Y-37278000D02*
X36128000Y-37278000D01*
X33528000Y-37278000D02*
X33528000Y-39938000D01*
X33528000Y-39938000D02*
X30928000Y-39938000D01*
X33528000Y-37278000D02*
X30928000Y-37278000D01*
X30928000Y-37278000D02*
X30928000Y-39938000D01*
%TO.C,R1*%
X43942000Y-22074000D02*
X43942000Y-21384000D01*
X43942000Y-11454000D02*
X43942000Y-12144000D01*
X45662000Y-21384000D02*
X45662000Y-12144000D01*
X42222000Y-21384000D02*
X45662000Y-21384000D01*
X42222000Y-12144000D02*
X42222000Y-21384000D01*
X45662000Y-12144000D02*
X42222000Y-12144000D01*
%TO.C,U1*%
X34109000Y-7144000D02*
X34109000Y-8654000D01*
X30408000Y-7144000D02*
X30408000Y-8654000D01*
X27138000Y-8654000D02*
X37378000Y-8654000D01*
X37378000Y-7144000D02*
X37378000Y-11785000D01*
X27138000Y-7144000D02*
X27138000Y-11785000D01*
X27138000Y-11785000D02*
X37378000Y-11785000D01*
X27138000Y-7144000D02*
X37378000Y-7144000D01*
%TO.C,C1*%
D10*
X22825333Y-31515142D02*
X22777714Y-31562761D01*
X22634857Y-31610380D01*
X22539619Y-31610380D01*
X22396761Y-31562761D01*
X22301523Y-31467523D01*
X22253904Y-31372285D01*
X22206285Y-31181809D01*
X22206285Y-31038952D01*
X22253904Y-30848476D01*
X22301523Y-30753238D01*
X22396761Y-30658000D01*
X22539619Y-30610380D01*
X22634857Y-30610380D01*
X22777714Y-30658000D01*
X22825333Y-30705619D01*
X23777714Y-31610380D02*
X23206285Y-31610380D01*
X23492000Y-31610380D02*
X23492000Y-30610380D01*
X23396761Y-30753238D01*
X23301523Y-30848476D01*
X23206285Y-30896095D01*
%TO.C,C2*%
X33341333Y-26713142D02*
X33293714Y-26760761D01*
X33150857Y-26808380D01*
X33055619Y-26808380D01*
X32912761Y-26760761D01*
X32817523Y-26665523D01*
X32769904Y-26570285D01*
X32722285Y-26379809D01*
X32722285Y-26236952D01*
X32769904Y-26046476D01*
X32817523Y-25951238D01*
X32912761Y-25856000D01*
X33055619Y-25808380D01*
X33150857Y-25808380D01*
X33293714Y-25856000D01*
X33341333Y-25903619D01*
X33722285Y-25903619D02*
X33769904Y-25856000D01*
X33865142Y-25808380D01*
X34103238Y-25808380D01*
X34198476Y-25856000D01*
X34246095Y-25903619D01*
X34293714Y-25998857D01*
X34293714Y-26094095D01*
X34246095Y-26236952D01*
X33674666Y-26808380D01*
X34293714Y-26808380D01*
%TO.C,D1*%
X16533904Y-14651380D02*
X16533904Y-13651380D01*
X16772000Y-13651380D01*
X16914857Y-13699000D01*
X17010095Y-13794238D01*
X17057714Y-13889476D01*
X17105333Y-14079952D01*
X17105333Y-14222809D01*
X17057714Y-14413285D01*
X17010095Y-14508523D01*
X16914857Y-14603761D01*
X16772000Y-14651380D01*
X16533904Y-14651380D01*
X18057714Y-14651380D02*
X17486285Y-14651380D01*
X17772000Y-14651380D02*
X17772000Y-13651380D01*
X17676761Y-13794238D01*
X17581523Y-13889476D01*
X17486285Y-13937095D01*
X24630095Y-13066380D02*
X24630095Y-12066380D01*
X25201523Y-13066380D02*
X24772952Y-12494952D01*
X25201523Y-12066380D02*
X24630095Y-12637809D01*
%TO.C,D2*%
X16533904Y-42488380D02*
X16533904Y-41488380D01*
X16772000Y-41488380D01*
X16914857Y-41536000D01*
X17010095Y-41631238D01*
X17057714Y-41726476D01*
X17105333Y-41916952D01*
X17105333Y-42059809D01*
X17057714Y-42250285D01*
X17010095Y-42345523D01*
X16914857Y-42440761D01*
X16772000Y-42488380D01*
X16533904Y-42488380D01*
X17486285Y-41583619D02*
X17533904Y-41536000D01*
X17629142Y-41488380D01*
X17867238Y-41488380D01*
X17962476Y-41536000D01*
X18010095Y-41583619D01*
X18057714Y-41678857D01*
X18057714Y-41774095D01*
X18010095Y-41916952D01*
X17438666Y-42488380D01*
X18057714Y-42488380D01*
X24630095Y-41768380D02*
X24630095Y-40768380D01*
X25201523Y-41768380D02*
X24772952Y-41196952D01*
X25201523Y-40768380D02*
X24630095Y-41339809D01*
%TO.C,D3*%
X41933904Y-35100380D02*
X41933904Y-34100380D01*
X42172000Y-34100380D01*
X42314857Y-34148000D01*
X42410095Y-34243238D01*
X42457714Y-34338476D01*
X42505333Y-34528952D01*
X42505333Y-34671809D01*
X42457714Y-34862285D01*
X42410095Y-34957523D01*
X42314857Y-35052761D01*
X42172000Y-35100380D01*
X41933904Y-35100380D01*
X42838666Y-34100380D02*
X43457714Y-34100380D01*
X43124380Y-34481333D01*
X43267238Y-34481333D01*
X43362476Y-34528952D01*
X43410095Y-34576571D01*
X43457714Y-34671809D01*
X43457714Y-34909904D01*
X43410095Y-35005142D01*
X43362476Y-35052761D01*
X43267238Y-35100380D01*
X42981523Y-35100380D01*
X42886285Y-35052761D01*
X42838666Y-35005142D01*
%TO.C,J1*%
X9318666Y-20490380D02*
X9318666Y-21204666D01*
X9271047Y-21347523D01*
X9175809Y-21442761D01*
X9032952Y-21490380D01*
X8937714Y-21490380D01*
X10318666Y-21490380D02*
X9747238Y-21490380D01*
X10032952Y-21490380D02*
X10032952Y-20490380D01*
X9937714Y-20633238D01*
X9842476Y-20728476D01*
X9747238Y-20776095D01*
%TO.C,J2*%
X36580380Y-38941333D02*
X37294666Y-38941333D01*
X37437523Y-38988952D01*
X37532761Y-39084190D01*
X37580380Y-39227047D01*
X37580380Y-39322285D01*
X36675619Y-38512761D02*
X36628000Y-38465142D01*
X36580380Y-38369904D01*
X36580380Y-38131809D01*
X36628000Y-38036571D01*
X36675619Y-37988952D01*
X36770857Y-37941333D01*
X36866095Y-37941333D01*
X37008952Y-37988952D01*
X37580380Y-38560380D01*
X37580380Y-37941333D01*
%TO.C,R1*%
X47114380Y-16930666D02*
X46638190Y-17264000D01*
X47114380Y-17502095D02*
X46114380Y-17502095D01*
X46114380Y-17121142D01*
X46162000Y-17025904D01*
X46209619Y-16978285D01*
X46304857Y-16930666D01*
X46447714Y-16930666D01*
X46542952Y-16978285D01*
X46590571Y-17025904D01*
X46638190Y-17121142D01*
X46638190Y-17502095D01*
X47114380Y-15978285D02*
X47114380Y-16549714D01*
X47114380Y-16264000D02*
X46114380Y-16264000D01*
X46257238Y-16359238D01*
X46352476Y-16454476D01*
X46400095Y-16549714D01*
%TO.C,U1*%
X31496095Y-5596380D02*
X31496095Y-6405904D01*
X31543714Y-6501142D01*
X31591333Y-6548761D01*
X31686571Y-6596380D01*
X31877047Y-6596380D01*
X31972285Y-6548761D01*
X32019904Y-6501142D01*
X32067523Y-6405904D01*
X32067523Y-5596380D01*
X33067523Y-6596380D02*
X32496095Y-6596380D01*
X32781809Y-6596380D02*
X32781809Y-5596380D01*
X32686571Y-5739238D01*
X32591333Y-5834476D01*
X32496095Y-5882095D01*
%TD*%
M02*
