M48
; DRILL file {KiCad (5.1.10)-1} date 09/05/25 10:38:14
; FORMAT={-:-/ absolute / inch / decimal}
; #@! TF.CreationDate,2025-09-05T10:38:14+05:30
; #@! TF.GenerationSoftware,Kicad,Pcbnew,(5.1.10)-1
; #@! TF.FileFunction,Plated,1,2,PTH
FMAT,2
INCH
T1C0.0315
T2C0.0354
T3C0.0394
T4C0.0433
T5C0.0472
%
G90
G05
T1
X0.8304Y-1.02
X0.98Y-1.02
X1.27Y-0.89
X1.3684Y-0.89
X1.73Y-0.41
X1.73Y-0.91
T2
X1.63Y-1.52
X1.73Y-1.52
T3
X0.38Y-0.92
X0.38Y-1.02
X0.38Y-1.12
X1.27Y-1.52
X1.37Y-1.52
T4
X1.17Y-0.41
X1.27Y-0.41
X1.37Y-0.41
T5
X0.38Y-0.41
X0.38Y-1.54
X0.98Y-0.41
X0.98Y-1.54
T0
M30
